<?xml version="1.0" encoding="UTF-8"?>
<svg width="33px" height="33px" viewBox="0 0 33 33" version="1.1" xmlns="http://www.w3.org/2000/svg" xmlns:xlink="http://www.w3.org/1999/xlink">
    <!-- Generator: Sketch 43.2 (39069) - http://www.bohemiancoding.com/sketch -->
    <title>Group Copy 2</title>
    <desc>Created with Sketch.</desc>
    <defs></defs>
    <g id="Page-1" stroke="none" stroke-width="1" fill="none" fill-rule="evenodd">
        <g id="Desktop-HD-Copy-5" transform="translate(-1324.000000, -2146.000000)">
            <g id="Group-Copy-2" transform="translate(1326.000000, 2148.000000)">
                <g id="Group-7">
                    <ellipse id="Oval" stroke="#1A1A1A" stroke-width="3" cx="14.5" cy="14.5" rx="14.3313953" ry="14.5"></ellipse>
                    <path d="M20.6409186,20.0219412 C20.6409186,20.4037176 20.3350698,20.7131647 19.9577326,20.7131647 L16.8031395,20.7131647 L16.8031395,15.863 L18.4123023,15.863 L18.653407,13.9725412 L16.8031395,13.9725412 L16.8031395,12.7658 C16.8031395,12.2185529 16.9535349,11.8456471 17.7291163,11.8456471 L18.7184884,11.8449647 L18.7184884,10.1544353 C18.5475233,10.1312353 17.9601047,10.0800588 17.2769186,10.0800588 C15.8505233,10.0800588 14.8739651,10.9609765 14.8739651,12.5784941 L14.8739651,13.9725412 L13.2607558,13.9725412 L13.2607558,15.863 L14.8739651,15.863 L14.8739651,20.7131647 L8.94481395,20.7131647 C8.56747674,20.7131647 8.26162791,20.4037176 8.26162791,20.0219412 L8.26162791,8.87945882 C8.26162791,8.49768235 8.56747674,8.18823529 8.94481395,8.18823529 L19.9577326,8.18823529 C20.3350698,8.18823529 20.6409186,8.49768235 20.6409186,8.87945882 L20.6409186,20.0219412" id="Facebook" fill="#1A1A1A"></path>
                </g>
            </g>
        </g>
    </g>
</svg>