<?xml version="1.0" encoding="UTF-8"?>
<svg width="44px" height="30px" viewBox="0 0 44 30" version="1.1" xmlns="http://www.w3.org/2000/svg" xmlns:xlink="http://www.w3.org/1999/xlink">
    <!-- Generator: Sketch 43.2 (39069) - http://www.bohemiancoding.com/sketch -->
    <title>noun_540922_cc copy</title>
    <desc>Created with Sketch.</desc>
    <defs></defs>
    <g id="Page-1" stroke="none" stroke-width="1" fill="none" fill-rule="evenodd">
        <g id="Desktop-HD-Copy-5" transform="translate(-1264.000000, -2148.000000)" fill-rule="nonzero" fill="#000000">
            <g id="noun_540922_cc-copy" transform="translate(1264.000000, 2148.000000)">
                <g id="Group">
                    <g transform="translate(0.000000, 0.318910)" id="Shape">
                        <path d="M4.375,0.18109 C1.96854815,0.18109 0,2.14964 0,4.55609 L0,24.80609 C0,27.21254 1.96854815,29.18109 4.375,29.18109 L39.625,29.18109 C42.031452,29.18109 44,27.21254 44,24.80609 L44,4.55609 C44,2.14964 42.031452,0.18109 39.625,0.18109 L4.375,0.18109 Z M4.375,2.18109 L39.625,2.18109 C40.9580465,2.18109 42,3.223045 42,4.55609 L42,5.102965 L22,17.009215 L2,5.102965 L2,4.55609 C2,3.223045 3.0419535,2.18109 4.375,2.18109 Z M2,7.446715 L21.484375,19.040465 C21.8016234,19.2313569 22.1983766,19.2313569 22.515625,19.040465 L42,7.446715 L42,24.80609 C42,26.13914 40.9580465,27.18109 39.625,27.18109 L4.375,27.18109 C3.0419535,27.18109 2,26.13914 2,24.80609 L2,7.446715 Z"></path>
                    </g>
                </g>
            </g>
        </g>
    </g>
</svg>