<?xml version="1.0" encoding="UTF-8"?>
<svg width="30px" height="32px" viewBox="0 0 30 32" version="1.1" xmlns="http://www.w3.org/2000/svg" xmlns:xlink="http://www.w3.org/1999/xlink">
    <!-- Generator: Sketch 43.2 (39069) - http://www.bohemiancoding.com/sketch -->
    <title>noun_386071_cc</title>
    <desc>Created with Sketch.</desc>
    <defs></defs>
    <g id="Page-1" stroke="none" stroke-width="1" fill="none" fill-rule="evenodd">
        <g id="Desktop-HD-Copy-5" transform="translate(-1218.000000, -2147.000000)" fill-rule="nonzero" fill="#000000">
            <g id="noun_386071_cc" transform="translate(1218.000000, 2147.000000)">
                <g id="Group">
                    <path d="M21.9903252,31.6831373 C16.627282,31.6831373 10.3766189,28.4204655 6.06609761,23.3710291 C1.41253967,17.9200126 -0.750864302,10.822651 0.554439191,5.289584 C1.32567778,2.01557199 3.60139146,0.67341384 3.99634162,0.462617631 C4.40622116,0.163767308 4.90465912,0 5.40581152,0 C6.06881204,0 6.69211397,0.284841714 7.1162443,0.780813175 L7.18376584,0.878206361 L11.099337,7.99824859 C11.5411112,8.81008082 11.6435811,9.54953525 11.4060681,10.2002685 C11.0942475,11.0541265 10.3206337,11.3869978 10.2334325,11.4220193 L10.1981449,11.4350273 C9.11237126,11.7949151 7.46810281,12.3429186 6.79153012,12.5733935 C6.75759969,13.4619396 7.44265499,15.2977344 9.5290369,18.0577639 C12.1311613,21.4995457 15.4020544,24.3239481 16.9845694,24.528407 L18.7221465,21.4184959 C18.9640705,21.036261 19.5914441,20.4355585 20.513673,20.4355585 C21.0989729,20.4355585 21.7053096,20.6727042 22.3160573,21.1406585 L28.8720942,26.2384579 C29.6633517,27.1653609 29.5490062,28.5515461 28.6223663,29.3443667 C28.3706025,29.6008576 26.5661825,31.3135768 23.0903496,31.63344 C22.7334015,31.6664603 22.3632206,31.6831373 21.9903252,31.6831373 Z M5.40581152,1.16104684 C5.14760097,1.16104684 4.88871182,1.25043511 4.67664666,1.41220119 L4.57756981,1.47357224 C4.49138653,1.51659868 2.40195089,2.59259325 1.70468064,5.55207865 C0.480470862,10.7419347 2.54717312,17.4437199 6.97068277,22.6252375 C11.0029746,27.348807 17.0391974,30.5224239 21.9903252,30.5224239 C22.326915,30.5224239 22.6601118,30.5074147 22.980415,30.4780634 C26.1800542,30.183549 27.7659623,28.5462095 27.781231,28.5298661 L27.8341625,28.4798354 C28.275258,28.1139438 28.3448154,27.4725497 28.0011002,27.026609 L21.587571,22.0542199 C21.1919423,21.7510336 20.8299046,21.5962718 20.513673,21.5962718 C20.0610412,21.5962718 19.7926515,21.9341461 19.744131,22.0008538 L17.7038945,25.6517641 L17.4025923,25.6871191 C17.3238737,25.6964582 17.24278,25.7011277 17.1589718,25.7011277 L17.1586325,25.7011277 C14.7203921,25.7004607 10.6928505,21.5439063 8.58102079,18.7498559 C7.26350235,17.0067847 5.13674324,13.8094865 5.69795248,11.9756929 C5.77463525,11.6831798 5.77463525,11.6831798 7.94787904,10.957734 C8.79071082,10.6762276 9.63354261,10.396389 9.79301561,10.34369 C9.85001873,10.3156727 10.1764294,10.143567 10.2979004,9.79635359 C10.4122459,9.46981959 10.3318308,9.04956133 10.0586908,8.54758618 L6.1767108,1.48824792 C5.97719989,1.27678464 5.70541718,1.16104684 5.40581152,1.16104684 Z" id="Shape"></path>
                </g>
            </g>
        </g>
    </g>
</svg>